<svg xmlns="http://www.w3.org/2000/svg" viewBox="0 0 32 32" fill="none">
  <rect width="32" height="32" rx="8" fill="#0D9488"/>
  <path d="M16 5C9.37 5 4 10.37 4 17" stroke="white" stroke-width="2.2" stroke-linecap="round"/>
  <path d="M16 8.5C11.25 8.5 7.5 12.25 7.5 17" stroke="white" stroke-width="2.2" stroke-linecap="round"/>
  <path d="M16 12c-2.76 0-5 2.24-5 5 0 1.1.35 2.1.95 2.9" stroke="white" stroke-width="2.2" stroke-linecap="round"/>
  <path d="M16 12c2.76 0 5 2.24 5 5v2.5" stroke="white" stroke-width="2.2" stroke-linecap="round"/>
  <path d="M11 17v4.5" stroke="white" stroke-width="2.2" stroke-linecap="round"/>
  <path d="M21 19.5c0 2.5-1.2 4.8-3 6.2" stroke="white" stroke-width="2.2" stroke-linecap="round"/>
  <path d="M11 21.5c.6 2 2 3.7 3.8 4.7" stroke="white" stroke-width="2.2" stroke-linecap="round"/>
  <path d="M16 5c6.63 0 12 5.37 12 12 0 2.1-.54 4.07-1.5 5.77" stroke="white" stroke-width="2.2" stroke-linecap="round"/>
  <path d="M25 24.5c-1.4 2-3.4 3.5-5.7 4.2" stroke="white" stroke-width="2.2" stroke-linecap="round"/>
</svg>
